<svg xmlns="http://www.w3.org/2000/svg" viewBox="-20 -820 421.001 1040"><path transform="scale(1,-1)" d="M16.144235046058157 692.1824659880492C7.7132908735993055 682.8793551770602 6.550402022225676 663.6916891293952 6.259679809382263 559.9038591442984C5.968957596538857 494.7820834673749 4.80606874516522 462.51191784175654 2.7710132552613587 460.4768623518527C0.44523555251409164 458.1510846491054 0.44523555251409164 456.69747358488837 2.7710132552613587 455.53458473351475C6.841124235069081 452.91808481792407 7.131846447912487 396.8086977391462 3.0617354681047715 394.19219782355555C-1.2990977245463569 391.57569790796487 -0.7176532988595383 325.0003111668243 3.64317989379159 320.6394779741732C6.550402022225676 317.7322558457391 6.550402022225676 315.69720035583526 3.64317989379159 311.3363671631841C-0.4269310860161326 304.3590340549423 -1.5898199373897697 135.44942839292193 2.7710132552613587 132.83292847733125C4.2246243194784014 131.96076183880103 6.259679809382263 126.43703979477627 7.4225686607559 120.33187332506469C15.853512833214744 75.26993033433637 69.92784442208874 24.68426529958328 125.16506486233637 10.438876870256266C135.63106452469907 7.822376954665586 146.6785086127486 4.333710400544682 149.8764529540261 2.5893771234842333C162.66823031913606 -3.225067133383938 226.62711714468594 1.4264882721105963 249.59417195931525 9.857432444569447C308.02933674084034 31.9523206206685 346.11394662332685 68.58331943893798 363.8480016067748 120.04115111222129C372.27894577923365 144.1710947782242 374.3140012691375 193.59387096160364 374.89544569482433 394.482920036399C375.1861679076677 484.02536159216874 376.63977897188477 550.0193039076225 378.3841122489452 552.9265260360567C379.83772331316226 555.8337481644908 381.0006121645359 584.6152472359881 381.0006121645359 617.1761350744498C381.0006121645359 684.042244028434 380.1284455260057 686.9494661568679 359.19644620128025 691.0195771366757C353.6727241572555 691.8917437752059 348.1490021132307 693.9267992651098 347.2768354747005 695.3804103293269C345.24177998479666 698.8690768834476 312.6808921463349 698.8690768834476 305.99428125093647 695.3804103293269C303.3777813353458 693.9267992651098 297.27261486563424 691.0195771366757 292.6210594601397 688.9845216467718C277.79422660512586 681.7164663256865 278.9571154564995 709.6257987586539 275.1777266895352 280.81053481462624C274.01483783816155 158.70720542039462 273.1426711996313 147.36903911950168 261.8045048987384 125.27415094340265C232.15083918871073 68.00187501325115 131.27023133204796 72.9441526315891 101.61656562202027 133.12365069017466C92.6041770238746 150.8577056736226 92.894899236718 322.3838112512336 101.61656562202027 584.6152472359881C103.0701766862373 623.8627459698482 103.94234332476755 659.9123003624309 103.36089889908071 664.5638557679256C103.0701766862373 669.5061333862634 102.48873226055049 675.611299855975 102.19801004770709 678.2277997715657C100.74439898349003 697.1247436063873 30.97106790107199 708.4629099072802 16.144235046058157 692.1824659880492Z"/></svg>
