<svg xmlns="http://www.w3.org/2000/svg" viewBox="-20 -820 496.144 1040"><path transform="scale(1,-1)" d="M74.9989095861268 390.6583193185142C74.89640538168106 390.48747897777133 73.59801879203513 390.31663863702846 72.12879186164632 390.31663863702846C70.42038845421746 390.31663863702846 69.08783379642296 390.14579829628553 68.47280856974857 389.8041176147998C67.92611947937134 389.5307730696112 67.20859004825121 389.2915965925711 66.90107743491401 389.2915965925711C66.59356482157682 389.2915965925711 66.21771607194248 389.15492431997683 66.11521186749674 388.9499159110853C65.80769925415956 388.4373948888567 62.49339664374758 388.574067161451 61.502522667438846 389.12075625182825C61.024169713358766 389.39410079701685 59.759951191861404 389.59910920590835 58.700741079255515 389.6332772740569C57.641530966649626 389.6332772740569 56.343144377003696 389.8041176147998 55.864791422923616 390.0432940918398C55.21559812810065 390.35080670517704 54.90808551476346 390.35080670517704 54.60057290142626 390.0432940918398C54.36139642438622 389.8041176147998 53.9513796066033 389.6332772740569 53.678035061414676 389.6332772740569C53.37052244807748 389.6332772740569 52.68716108510594 389.39410079701685 52.140471994728706 389.12075625182825C51.047093813974236 388.53989909330244 47.459446658373636 388.4373948888567 46.94692563614498 388.9499159110853C46.4685726820649 389.4282688651654 22.61926111435806 389.4966050014626 22.106740092129403 388.9840839792339C21.90173168323794 388.77907557034246 21.081698047672088 388.6082352295996 20.295832480254816 388.6082352295996C19.475798844688963 388.6082352295996 18.724101345420266 388.4715629570053 18.621597140974536 388.26655454811385C18.519092936528804 388.0957142073709 17.972403846151572 387.92487386662805 17.425714755774337 387.92487386662805C16.8790256653971 387.92487386662805 16.33233657501987 387.78820159403375 16.229832370574137 387.58319318514225C16.127328166128404 387.4123528443994 15.13645418981967 387.2415125036565 14.077244077213777 387.2415125036565C12.163832260893457 387.2415125036565 12.061328056447728 387.20734443550793 10.421260785316026 385.49894102807906C9.464554877155866 384.5422351199189 8.371176696401395 383.6196972799073 7.926991810469894 383.44885693916444C7.516974992686969 383.2780165984216 7.072790106755465 382.8679997806386 6.936117834161158 382.5604871673014C6.833613629715427 382.21880648581566 6.526101016378232 381.706285463587 6.252756471189614 381.3987728502498C5.535227040069494 380.5445711465354 2.391764770400399 374.18931047090007 2.391764770400399 373.5742852442256C2.391764770400399 373.26677263088845 2.2209244296575132 372.8567558131055 1.9817479526174733 372.6175793360655C1.7084034074288565 372.34423479087684 1.5717311348345477 368.8932599078706 1.435058862240239 361.03460423369785C1.3667227259430854 354.88435196695394 1.1617143170516222 349.6908056083702 0.9908739763087366 349.4857971994788C0.8200336355658511 349.31495685873585 0.6833613629715423 345.76147777128386 0.6833613629715423 341.55880538900885C0.6833613629715423 336.70693971191093 0.5466890903772335 333.93932619187615 0.34168068148577113 333.93932619187615C0.17084034074288557 333.93932619187615 0.0 333.18762869260746 0.0 332.23092278444733C0.0 331.3083849444357 0.17084034074288557 330.52251937701845 0.34168068148577113 330.52251937701845C0.5466890903772335 330.52251937701845 0.6833613629715423 330.04416642293836 0.6833613629715423 329.46330926441254C0.6833613629715423 327.5840655162408 2.2892605659546676 323.10804858877725 3.2459664741148275 322.32218302135993C3.5193110193034443 322.0830065443199 3.7584874963434842 321.70715779468554 3.7584874963434842 321.5021493857941C3.7584874963434842 321.0579644998626 5.8427396534066895 318.90537620650224 6.286924539338192 318.90537620650224C6.423596811932501 318.90537620650224 7.004453970458312 318.52952745686787 7.585311128984123 318.05117450278783C8.132000219361359 317.57282154870774 8.883697718630053 317.19697279907336 9.225378400115826 317.19697279907336C9.601227149750173 317.19697279907336 10.421260785316026 316.8894601857362 11.104622148287568 316.5136114361018C11.78798351125911 316.1377626864675 12.60801714682496 315.8302500731303 12.98386589645931 315.8302500731303C13.32554657794508 315.8302500731303 13.70139532757943 315.693577800536 13.80389953202516 315.5227374597931C13.906403736470892 315.3518971190502 14.350588622402395 315.14688871015875 14.76060544018532 315.044384505713C15.204790326116822 314.9418803012673 16.40067271131702 314.56603155163293 17.425714755774337 314.15601473385004C18.519092936528804 313.7459979160671 20.090824071363354 313.4384853027299 21.252538388414976 313.4384853027299C22.311748501020865 313.4384853027299 23.302622477329603 313.267644961987 23.405126681775336 313.09680462124413C23.507630886221065 312.92596428050126 24.464336794381225 312.75512393975833 25.48937883883854 312.75512393975833C26.514420883295852 312.75512393975833 27.334454518861705 312.61845166716404 27.334454518861705 312.4134432582726C27.334454518861705 311.9350903041925 38.849093484932204 311.9350903041925 39.12243803012082 312.4134432582726C39.22494223456655 312.61845166716404 39.77163132494378 312.75512393975833 40.31832041532102 312.75512393975833C40.865009505698254 312.75512393975833 41.41169859607549 312.61845166716404 41.51420280052122 312.4134432582726C41.61670700496695 312.24260291752967 42.02672382274987 312.0717625767868 42.36840450423565 312.0717625767868C42.74425325386999 312.0717625767868 43.59845495758442 311.76424996344963 44.31598438870454 311.3542331456667C45.2726902968647 310.80754405528944 45.88771552353909 310.7050398508437 46.94692563614498 310.8758801915866C49.78287529247689 311.3200650775181 55.04475778735776 311.4567373501124 55.52311074143784 311.0467205323295C56.27480824070654 310.4316953056551 59.315766305929905 310.2950230330608 64.23596811932501 310.7050398508437C66.76440516231972 310.91004825973516 69.4636825460573 311.0808886004781 70.215380045326 311.0467205323295C80.19245594471053 310.77337598714087 100.65912876570823 310.77337598714087 100.93247331089684 311.0467205323295C101.37665819682834 311.490905418261 102.9483893316629 311.490905418261 103.3925742175944 311.0467205323295C103.59758262648586 310.841712123438 105.68183478354906 310.602535646398 108.00526341765232 310.5000314419523C110.32869205175555 310.39752723750655 112.58378454956164 310.1583507604665 112.99380136734457 309.95334235157503C113.57465852587039 309.6458297382378 114.18968375254477 309.714165874535 115.52223841033928 310.1241826923179C116.47894431849944 310.4658633738037 117.64065863555106 310.7050398508437 118.08484352148257 310.7050398508437C118.49486033926549 310.7050398508437 118.97321329334557 310.841712123438 119.0757174977913 311.0467205323295C119.55407045187138 311.7984180315982 124.67928067415795 310.91004825973516 125.26013783268377 309.9875104197236C125.36264203712949 309.81667007898074 126.66102862677542 309.6799978063864 128.16442362531282 309.6799978063864C129.73615476014737 309.6799978063864 130.8637010090504 309.5433255337921 130.8637010090504 309.33831712490064C130.8637010090504 308.96246837526627 132.674608620925 308.85996417082055 133.05045737055934 309.2358129204549C133.49464225649086 309.6799978063864 135.8180708905941 310.363359169358 137.0139532757943 310.363359169358C137.66314657061727 310.39752723750655 138.82486088766888 310.602535646398 139.5765583869376 310.8758801915866C140.32825588620628 311.14922473677524 141.59247440770363 311.38840121381526 142.3783399751209 311.38840121381526C143.16420554253818 311.38840121381526 143.91590304180687 311.5592415545581 144.01840724625262 311.73008189530105C144.29175179144121 312.1742667812325 147.1618695159217 312.1742667812325 147.43521406111032 311.73008189530105C147.70855860629894 311.28589700936953 149.89531496780788 311.28589700936953 150.1686595129965 311.73008189530105C150.27116371744222 311.9009222360439 151.43287803449385 312.0717625767868 152.73126462413978 312.0717625767868C154.0296512137857 312.0717625767868 155.19136553083734 312.2084348493811 155.29386973528307 312.4134432582726C155.5672142804717 312.85762814420406 161.85413881980986 312.85762814420406 162.12748336499848 312.4134432582726C162.4008279101871 311.9692583723411 165.61262631615335 311.9692583723411 165.88597086134197 312.4134432582726C166.1593154065306 312.85762814420406 172.4462399458688 312.85762814420406 172.7195844910574 312.4134432582726C172.992929036246 311.9692583723411 182.35497970895617 311.9692583723411 182.62832425414476 312.4134432582726C182.76499652673908 312.61845166716404 185.22509743343664 312.75512393975833 188.91524879348296 312.75512393975833C192.84457663056932 312.75512393975833 195.0996691283754 312.8917962123527 195.33884560541546 313.1309726893927C195.7146943550498 313.506821439027 197.90145071655874 312.9943004167984 198.68731628397603 312.34510712197545C198.8581566247189 312.2084348493811 200.32738355510773 312.0717625767868 201.96745082623943 312.0717625767868C203.60751809737113 312.0717625767868 205.07674502775996 311.9009222360439 205.17924923220568 311.73008189530105C205.4525937773943 311.28589700936953 212.08119899821827 311.28589700936953 212.35454354340686 311.73008189530105C212.4570477478526 311.9350903041925 213.48208979230992 312.0717625767868 214.57546797306438 312.0717625767868C215.66884615381886 312.0717625767868 216.69388819827617 312.24260291752967 216.7963924027219 312.4134432582726C216.89889660716764 312.61845166716404 217.51392183384203 312.75512393975833 218.163115128665 312.75512393975833C218.81230842348796 312.75512393975833 219.42733365016235 312.92596428050126 219.52983785460808 313.09680462124413C219.8031823997967 313.54098950717565 221.98993876130564 313.54098950717565 222.26328330649423 313.09680462124413C222.36578751093998 312.8917962123527 222.84414046502005 312.75512393975833 223.28832535095157 312.75512393975833C223.73251023688306 312.75512393975833 224.21086319096315 312.58428359901546 224.31336739540887 312.4134432582726C224.5867119405975 311.9692583723411 227.79851034656375 311.9692583723411 228.07185489175237 312.4134432582726C228.1743590961981 312.61845166716404 229.33607341324972 312.75512393975833 230.63446000289565 312.75512393975833C231.93284659254158 312.75512393975833 233.09456090959318 312.92596428050126 233.19706511403894 313.09680462124413C233.33373738663323 313.3018130301356 235.34965340739927 313.4384853027299 238.11726692743403 313.4384853027299C241.39740146969743 313.4384853027299 242.9349645363834 313.5751575753242 243.20830908157203 313.8485021205128C243.51582169490922 314.15601473385004 245.1900570341895 314.3268550745929 248.3335193038586 314.39519121089006C250.89612441500188 314.4635273471872 253.151216912808 314.66853575607865 253.35622532169944 314.8393760968216C253.7662421394824 315.24939291460447 254.9962925928311 315.24939291460447 255.44047747876263 314.80520802867295C256.53385565951714 313.7118298479185 260.3265112240092 314.05351052940426 263.1624608803411 315.5227374597931C263.94832644775835 315.932754277576 266.2717550818616 315.932754277576 266.68177189964456 315.5227374597931C266.886780308536 315.3518971190502 268.18516689818193 315.1127206420102 269.5860576922736 315.01021643756445C284.7225118820933 313.8826701886614 283.52662949689307 313.8485021205128 286.7384279028593 315.5227374597931C287.5242934702766 315.932754277576 294.6312516451806 315.932754277576 295.04126846296356 315.5227374597931C295.246276871855 315.3177290509016 296.98884834743245 315.1127206420102 298.9705963000499 315.01021643756445C303.9249661815936 314.80520802867295 308.2643108364629 314.29268700644434 309.1526806083259 313.81433405236425C309.59686549425743 313.5751575753242 312.3303109461436 313.4384853027299 316.87466400990434 313.4384853027299C321.17984059662507 313.4384853027299 323.9474541166598 313.3018130301356 324.08412638925415 313.09680462124413C324.22079866184845 312.8917962123527 327.330092863369 312.75512393975833 332.2844627449126 312.75512393975833C337.2388326264563 312.75512393975833 340.34812682797684 312.61845166716404 340.48479910057114 312.4134432582726C340.62147137316543 312.2084348493811 342.9790680754173 312.0717625767868 346.4642110265722 312.0717625767868C349.949353977727 312.0717625767868 352.30695067997885 311.9350903041925 352.44362295257315 311.73008189530105C352.58029522516745 311.52507348640955 357.63716931115687 311.38840121381526 366.4525308934898 311.38840121381526C376.0879261113885 311.38840121381526 380.3247665618121 311.28589700936953 380.495606902555 311.01255246418094C380.6322791751493 310.77337598714087 381.1789682655265 310.7392079189923 381.9648338329438 310.8758801915866C382.6481951959153 311.01255246418094 385.4158087159501 311.1833928049238 388.14925416783626 311.25172894122096C390.8826996197224 311.3200650775181 393.4453047308657 311.5592415545581 393.8211534805001 311.76424996344963C394.26533836643154 312.00342644048965 395.2220442745917 312.0717625767868 396.21291825090043 311.9009222360439C397.13545609091204 311.7984180315982 399.35638052056953 311.5934096227067 401.13312006429555 311.52507348640955C402.9098596080216 311.42256928196383 404.54992687915325 311.1833928049238 404.75493528804475 311.01255246418094C404.9599436969362 310.841712123438 409.36762448810265 310.63670371454657 414.4928347103892 310.53419951010085C423.41070049716785 310.39752723750655 425.7341291312711 310.1583507604665 426.6224989031341 309.2358129204549C426.9983476527685 308.85996417082055 431.1326838987463 308.96246837526627 431.3718603757863 309.33831712490064C431.4743645802321 309.5433255337921 432.12355787505504 309.6799978063864 432.772751169878 309.6799978063864C433.7636251461867 309.6799978063864 435.3011882128727 310.3291911012094 435.98454957584426 311.0467205323295C436.5312386662215 311.62757769085533 439.26468411810765 312.75512393975833 440.0847177536735 312.75512393975833C442.30564218333103 312.75512393975833 448.1825499048863 316.0694265501703 450.8476592204753 318.76870393390794C454.4353063760759 322.45885529395423 454.77698705756166 323.0738805206286 454.77698705756166 325.875662108812C454.77698705756166 327.10571256216076 454.9478273983045 328.1990907429152 455.11866773904745 328.30159494736097C455.3236761479389 328.4040991518067 455.4603484205332 330.07833449108693 455.4603484205332 332.09425051185303C455.4603484205332 334.2468388052134 455.5970206931275 335.647729599305 455.802029102019 335.647729599305C456.00703751091044 335.647729599305 456.14370978350473 336.2627548259794 456.14370978350473 337.0144523252481C456.14370978350473 337.7661498245168 456.00703751091044 338.3811750511912 455.83619717016757 338.3811750511912C455.63118876127606 338.3811750511912 455.4261803523846 339.95290618602576 455.3236761479389 341.90048607049465C455.0844996708989 346.5815114068497 454.7428189894131 349.79330981281595 454.4694744442245 349.99831822170745C454.3669702397787 350.1008224261532 453.9911214901444 350.71584765282756 453.6494408086586 351.3650409476505C453.30776012717286 352.0142342424735 452.4193903553098 353.68846958175374 451.7018609241897 355.08936037584544C449.9934575167609 358.26699071366306 449.9934575167609 359.22369662182325 451.7018609241897 360.9321000292521C452.72690296864704 361.92297400556083 453.4102643316186 363.3238647996525 453.4102643316186 364.31473877596125C453.4102643316186 364.8614278663385 453.58110467236145 365.4422850248643 453.7519450131043 365.54478922931C453.9569534219958 365.64729343375575 454.0936256945901 366.50149513747016 454.0936256945901 367.4240329774818C454.0936256945901 368.34657081749333 453.9569534219958 369.2007725212078 453.7519450131043 369.3032767256535C453.5469366042129 369.40578093009924 453.4102643316186 370.635831383448 453.4102643316186 371.9683860412425C453.4102643316186 374.5651592205344 452.3168861508641 377.4694450131634 450.710986947881 379.1778484205923C450.30097013009805 379.6220333065238 449.6176087671265 380.64707535098114 449.20759194934357 381.4329409183984C448.4558944500749 382.97050398508435 446.9524994515375 384.0980502339874 445.68828093004015 384.132218302136C445.3124321804058 384.16638637028456 444.6974069537314 384.4738989836218 444.35572627224565 384.8497477332561C444.01404559075985 385.22559648289047 443.12567581889687 385.6014452325248 442.1689699107367 385.70394943697056C440.28972616256493 385.9431259140106 438.03463366475887 386.55815114068497 437.45377650623305 387.0023360266165C436.6337428706672 387.6173612532908 434.1394738958211 386.11396625475345 433.59278480544384 384.64473932436465C432.4652385565408 381.6721173954384 427.9550535609286 382.0479661450728 424.7090870868138 385.36226875548476C423.13735595197926 386.9339998903193 421.63396095344183 387.92487386662805 420.6772550452817 387.92487386662805C420.3697424319445 387.92487386662805 419.6180449326758 388.0957142073709 419.0030197060014 388.334890684411C418.08048186598984 388.67657136589673 417.70463311635547 388.67657136589673 417.1921120941268 388.334890684411C416.8162633444925 388.0957142073709 416.2012381178181 387.92487386662805 415.8595574363323 387.92487386662805C415.483708686698 387.92487386662805 415.07369186891503 387.78820159403375 414.9711876644693 387.58319318514225C414.73201118742924 387.17317636735936 410.9735236910858 387.1390082992108 410.4951707370057 387.5148570488451C409.70930516958845 388.23238647996527 407.2150361947423 388.7449075021939 406.56584289991935 388.334890684411C406.22416221843355 388.0957142073709 405.60913699175916 387.92487386662805 405.2674563102734 387.92487386662805C404.89160756063905 387.92487386662805 404.4815907428561 387.78820159403375 404.3790865384104 387.58319318514225C404.27658233396465 387.3781847762508 402.60234699468435 387.2415125036565 400.6205990420669 387.2415125036565C398.6388510894494 387.2415125036565 396.9646157501692 387.1048402310622 396.8621115457234 386.8998318221707C396.41792665979193 386.1823023910506 382.8532036048068 386.4898150043878 381.4864808788637 387.2415125036565C380.18809428921776 387.9590419347766 378.069674064006 388.16405034366807 377.7279933825202 387.58319318514225C377.6254891780745 387.4123528443994 377.2154723602916 387.2415125036565 376.8396236106572 387.2415125036565C376.4979429291715 387.2415125036565 375.8829177024971 387.07067216291364 375.5070689528627 386.83149568587356C374.99454793063404 386.4898150043878 374.6186991809997 386.4898150043878 373.6961613409881 386.83149568587356C373.0811361143137 387.07067216291364 372.2269344105993 387.2415125036565 371.81691759281637 387.2415125036565C371.44106884318205 387.2415125036565 370.99688395725053 387.4123528443994 370.8943797528048 387.58319318514225C370.62103520761616 388.02737807107377 365.01747203124955 388.02737807107377 364.7441274860609 387.58319318514225C364.6416232816152 387.4123528443994 364.23160646383224 387.2415125036565 363.8557577141979 387.2415125036565C363.5140770327121 387.2415125036565 362.89905180603773 387.07067216291364 362.5232030564034 386.83149568587356C362.01068203417475 386.5239830725364 361.7031694208375 386.5239830725364 361.05397612601456 386.86566375402214C360.47311896748874 387.17317636735936 359.75558953636863 387.2415125036565 358.86721976450565 387.07067216291364C358.14969033338554 386.9339998903193 355.48458101779653 386.7631595495764 352.9561439748018 386.69482341327927C350.4277069318071 386.59231920883354 348.0017740932581 386.35314273179347 347.5575892073266 386.148134322902C346.9767320488008 385.84062170956486 346.7033875036122 385.84062170956486 346.39587489027497 386.148134322902C346.15669841323495 386.38731079994204 345.6441773910063 386.55815114068497 345.2341605732234 386.55815114068497C344.78997568729187 386.55815114068497 344.34579080136035 386.69482341327927 344.24328659691463 386.8998318221707C343.96994205172604 387.34401670810223 339.3914209198167 387.34401670810223 339.11807637462806 386.8998318221707C339.01557217018234 386.72899148142784 337.68301751238783 386.55815114068497 336.1796225138504 386.55815114068497C334.67622751531303 386.55815114068497 333.17283251677566 386.4214788680906 332.86531990343843 386.25063852734775C331.8744459271297 385.73811750511913 318.8905800306704 385.63561330067336 318.41222707659034 386.148134322902C317.8655379862131 386.6606553451307 314.6195715120983 386.69482341327927 314.1070504898696 386.1823023910506C313.90204208097816 385.97729398215915 311.6811176513206 385.73811750511913 308.9135041312859 385.63561330067336C306.2483948156969 385.53310909622763 303.99330231789077 385.2939326191876 303.89079811344504 385.15726034659326C303.61745356825645 384.6789073925132 297.8088819829983 384.78141159695895 297.2963609607697 385.2939326191876C296.98884834743245 385.6014452325248 294.42624323628917 385.70394943697056 286.9092682436022 385.70394943697056C277.1713688212577 385.73811750511913 276.8980242760691 385.73811750511913 275.42879734568027 386.5239830725364C274.33541916492584 387.1048402310622 273.6520578019543 387.2415125036565 272.866192234537 387.07067216291364C272.28533507601117 386.9339998903193 270.5085955322852 386.7631595495764 268.90269632930205 386.6606553451307C267.29679712631895 386.59231920883354 265.86173826407867 386.35314273179347 265.6567298551872 386.1823023910506C265.2125449692557 385.73811750511913 260.8048641780893 385.8064536414163 260.4973515647521 386.25063852734775C260.3606792921578 386.4898150043878 259.7456540654834 386.55815114068497 258.85728429362035 386.4214788680906C258.10558679435167 386.2848065954963 256.8755363410029 386.11396625475345 256.1580069098828 386.0114620503077C255.37214134246548 385.87478977771343 254.68877997949394 385.9431259140106 254.44960350245393 386.1823023910506C254.0054186165224 386.6264872769821 252.43368748168783 386.69482341327927 251.98950259575636 386.25063852734775C251.7844941868649 386.0456301184563 248.26518316756145 385.84062170956486 244.16501498973219 385.73811750511913C239.7915022667143 385.63561330067336 236.5113677244509 385.39643682363334 236.30635931555943 385.1914284147419C236.13551897481656 385.02058807399897 235.6229979525879 384.8497477332561 235.21298113480498 384.8497477332561C234.76879624887349 384.8497477332561 234.32461136294197 384.7130754606618 234.22210715849624 384.50806705177035C233.94876261330762 384.06388216583883 232.44536761477022 384.06388216583883 232.1720230695816 384.50806705177035C232.06951886513588 384.7130754606618 230.3952835258556 384.8497477332561 228.37936750508956 384.8497477332561C226.39761955247207 384.8497477332561 224.45003966800317 385.02058807399897 224.07419091836883 385.22559648289047C223.59583796428876 385.49894102807906 218.7439722871908 385.63561330067336 208.7327283196577 385.669781368822C194.17713128836385 385.70394943697056 194.10879515206668 385.70394943697056 193.08375310760937 386.4898150043878C192.50289594908355 386.8998318221707 191.88787072240916 387.2415125036565 191.68286231351772 387.2415125036565C191.51202197277482 387.2415125036565 191.34118163203195 387.4123528443994 191.34118163203195 387.58319318514225C191.34118163203195 388.02737807107377 189.73528242904882 388.02737807107377 189.4619378838602 387.58319318514225C189.35943367941445 387.4123528443994 188.88108072533439 387.2415125036565 188.4368958394029 387.2415125036565C187.99271095347137 387.2415125036565 187.2410134542027 387.07067216291364 186.79682856827117 386.86566375402214C186.1818033415968 386.59231920883354 185.77178652381386 386.59231920883354 185.25926550158522 386.86566375402214C184.78091254750512 387.1048402310622 184.47339993416793 387.1390082992108 184.33672766157363 386.8998318221707C184.23422345712788 386.72899148142784 183.85837470749354 386.55815114068497 183.51669402600777 386.55815114068497C183.175013344522 386.55815114068497 182.69666039044193 386.3189746636449 182.4574839134019 386.0456301184563C181.91079482302464 385.36226875548476 179.82654266596145 385.39643682363334 177.81062664519538 386.0797981866049C176.37556778295516 386.55815114068497 176.0338871014694 386.55815114068497 174.46215596663484 386.11396625475345C171.6603743784515 385.25976455103904 160.3165757531239 385.5672771643762 158.6765084819922 386.5239830725364C158.02731518716922 386.9339998903193 157.1731134834548 387.2415125036565 156.83143280196904 387.2415125036565C156.48975212048327 387.2415125036565 156.07973530270033 387.4123528443994 155.9772310982546 387.58319318514225C155.87472689380888 387.78820159403375 154.84968484935155 387.92487386662805 153.7563066685971 387.92487386662805C152.66292848784263 387.92487386662805 151.6378864433853 387.78820159403375 151.53538223893958 387.58319318514225C151.43287803449385 387.4123528443994 150.57867633077942 387.2415125036565 149.65613849076783 387.2415125036565C148.73360065075624 387.2415125036565 147.87939894704184 387.1048402310622 147.77689474259608 386.8998318221707C147.67439053815036 386.72899148142784 147.12770144777312 386.55815114068497 146.5810123573959 386.55815114068497C146.03432326701866 386.55815114068497 145.48763417664142 386.72899148142784 145.3851299721957 386.8998318221707C145.28262576774998 387.1048402310622 144.80427281366988 387.2415125036565 144.32591985958982 387.2415125036565C143.8817349736583 387.2415125036565 143.50588622402395 387.4123528443994 143.50588622402395 387.58319318514225C143.50588622402395 387.78820159403375 142.27583577067517 387.92487386662805 140.46492815880057 387.92487386662805C138.75652475137173 387.92487386662805 137.2872978209829 388.0957142073709 137.18479361653718 388.26655454811385C136.77477679875426 388.91574784293675 133.18712964315367 388.334890684411 132.3670960075878 387.4806889806965C131.99124725795346 387.1048402310622 128.88195305643293 387.20734443550793 128.6427765793929 387.58319318514225C128.54027237494716 387.78820159403375 127.82274294382705 387.92487386662805 127.10521351270694 387.92487386662805C126.3876840815868 387.92487386662805 125.67015465046669 387.78820159403375 125.56765044602096 387.58319318514225C125.46514624157521 387.3781847762508 123.92758317488926 387.2415125036565 122.15084363116324 387.2415125036565C120.37410408743723 387.2415125036565 118.83654102075126 387.3781847762508 118.73403681630553 387.58319318514225C118.6315326118598 387.78820159403375 117.98233931703683 387.92487386662805 117.33314602221387 387.92487386662805C116.6839527273909 387.92487386662805 116.17143170516225 387.78820159403375 116.17143170516225 387.58319318514225C116.17143170516225 387.4123528443994 115.6589106829336 387.2415125036565 115.00971738811063 387.2415125036565C114.36052409328765 387.2415125036565 113.71133079846469 387.1048402310622 113.60882659401896 386.8998318221707C113.33548204883034 386.45564693623925 107.7319188724637 386.45564693623925 107.45857432727507 386.8998318221707C107.35607012282935 387.1048402310622 106.80938103245211 387.2415125036565 106.26269194207488 387.2415125036565C105.71600285169764 387.2415125036565 105.16931376132041 387.4123528443994 105.06680955687467 387.58319318514225C104.96430535242895 387.78820159403375 103.80259103537732 387.92487386662805 102.50420444573139 387.92487386662805C101.20581785608546 387.92487386662805 100.04410353903384 388.0957142073709 99.9415993345881 388.26655454811385C99.83909513014238 388.4715629570053 98.81405308568506 388.6082352295996 97.72067490493059 388.6082352295996C96.62729672417612 388.6082352295996 95.63642274786739 388.7449075021939 95.53391854342166 388.8815797747882C95.43141433897593 389.0524201155311 92.6296327507926 389.2915965925711 89.28116207223204 389.4282688651654C85.93269139367149 389.5649411377598 83.06257366919101 389.8041176147998 82.89173332844813 390.00912602369124C82.68672491955665 390.1799663644341 82.20837196547657 390.31663863702846 81.76418707954507 390.31663863702846C81.32000219361358 390.31663863702846 80.9783215121278 390.48747897777133 80.9783215121278 390.6583193185142C80.9783215121278 390.8633277274057 79.7824391269276 391.0 78.10820378764733 391.0C76.5023045846642 391.0 75.10141379057254 390.8633277274057 74.9989095861268 390.6583193185142Z"/></svg>
